<!DOCTYPE svg PUBLIC "-//W3C//DTD SVG 20010904//EN" "http://www.w3.org/TR/2001/REC-SVG-20010904/DTD/svg10.dtd">
<svg version="1.0" xmlns="http://www.w3.org/2000/svg" width="400px" height="226px" viewBox="0 0 4000 2260" preserveAspectRatio="xMidYMid meet">
<g id="layer101" fill="#ffffff" stroke="none">
 <path d="M902 1945 c-120 -44 -214 -138 -263 -263 -32 -80 -32 -214 0 -294 47 -121 138 -216 248 -259 86 -34 212 -38 297 -9 151 50 252 159 291 317 41 162 -23 338 -162 444 -118 90 -276 115 -411 64z m292 -106 c68 -33 132 -99 164 -167 38 -81 38 -193 0 -274 -32 -69 -97 -136 -163 -169 -42 -20 -64 -24 -145 -24 -112 0 -167 21 -238 93 -67 66 -96 139 -96 237 0 123 48 212 148 279 70 46 106 56 201 53 61 -2 92 -9 129 -28z"/>
 <path d="M890 1520 l0 -240 127 0 c115 0 130 2 159 22 91 63 98 185 15 263 -30 28 -38 30 -122 33 l-89 4 0 79 0 79 -45 0 -45 0 0 -240z m245 -25 c32 -31 33 -80 3 -112 -18 -20 -31 -23 -90 -23 l-68 0 0 80 0 80 65 0 c57 0 69 -3 90 -25z"/>
 <path d="M3235 1913 c-39 -20 -75 -53 -75 -68 0 -7 9 -20 19 -29 19 -17 20 -17 31 3 35 67 194 68 230 2 5 -11 10 -35 10 -55 l0 -35 -42 24 c-80 46 -173 22 -225 -57 -24 -36 -28 -51 -28 -118 0 -67 3 -82 28 -119 55 -82 155 -101 240 -45 l37 24 0 -25 c0 -21 5 -25 31 -25 l30 0 -3 218 c-3 211 -4 218 -27 251 -13 18 -42 42 -65 52 -51 23 -149 24 -191 2z m148 -204 c56 -29 67 -49 67 -120 0 -58 -4 -72 -26 -98 -65 -77 -177 -48 -203 53 -27 109 73 211 162 165z"/>
 <path d="M1629 1763 c-62 -38 -77 -120 -34 -172 35 -40 83 -55 166 -49 63 5 69 4 69 -14 0 -24 -18 -59 -39 -75 -25 -19 -88 -15 -133 8 -40 20 -42 21 -55 3 -19 -27 -17 -30 33 -54 69 -34 124 -37 178 -11 67 33 86 79 86 209 0 56 4 104 10 107 16 10 12 55 -6 62 -20 8 -64 -13 -64 -30 0 -11 -12 -8 -47 9 -55 28 -126 31 -164 7z m121 -43 c10 0 32 -12 49 -26 40 -33 44 -88 9 -98 -67 -17 -158 3 -171 38 -11 27 13 74 41 85 15 5 33 8 40 5 8 -2 22 -4 32 -4z"/>
 <path d="M1980 1585 l0 -195 35 0 c31 0 35 3 35 25 l0 24 36 -24 c21 -14 51 -25 70 -25 31 0 34 3 34 29 0 25 -4 30 -37 36 -22 4 -50 20 -70 40 l-33 33 0 126 0 126 -35 0 -35 0 0 -195z"/>
 <path d="M2230 1510 l0 -270 35 0 35 0 0 167 0 168 93 -93 c89 -88 94 -92 137 -92 l45 0 -78 78 c-42 42 -77 81 -77 86 0 4 34 55 75 112 41 57 75 107 75 110 0 3 -17 4 -37 2 -34 -3 -42 -10 -103 -95 l-65 -92 -32 32 c-30 28 -33 36 -33 94 l0 63 -35 0 -35 0 0 -270z"/>
 <path d="M2600 1585 l0 -195 35 0 35 0 0 195 0 195 -35 0 -35 0 0 -195z"/>
 <path d="M2760 1585 l0 -195 30 0 c27 0 30 3 30 31 l0 31 30 -26 c66 -55 164 -57 203 -5 27 37 36 95 37 237 l0 122 -34 0 -35 0 -3 -144 c-3 -125 -6 -147 -22 -165 -23 -25 -65 -27 -106 -6 -54 28 -60 47 -60 187 l0 128 -35 0 -35 0 0 -195z"/>
 <path d="M2600 1285 c0 -45 0 -45 35 -45 35 0 35 0 35 45 0 45 0 45 -35 45 -35 0 -35 0 -35 -45z"/>
 <path d="M553 1155 c-298 -81 -427 -415 -258 -669 61 -92 146 -151 262 -181 73 -19 121 -19 200 1 201 50 333 218 333 424 0 125 -39 220 -124 306 -111 111 -272 157 -413 119z m242 -119 c66 -30 133 -95 165 -161 35 -71 40 -189 10 -267 -28 -75 -98 -149 -175 -185 -85 -39 -194 -40 -277 -1 -68 31 -133 95 -168 164 -21 41 -25 63 -25 139 0 76 4 99 26 146 80 170 275 242 444 165z"/>
 <path d="M500 725 l0 -245 170 0 170 0 0 40 0 40 -125 0 -125 0 0 60 0 60 110 0 110 0 0 40 0 40 -110 0 -110 0 0 60 0 60 125 0 125 0 0 45 0 45 -170 0 -170 0 0 -245z"/>
 <path d="M1980 1110 c0 -25 4 -30 24 -30 28 0 37 -11 58 -65 l15 -40 -82 -187 -83 -188 37 0 36 0 59 143 c32 78 62 145 65 149 4 5 33 -60 65 -142 l59 -150 33 0 34 0 -19 48 c-146 369 -185 460 -203 475 -12 10 -37 17 -59 17 -37 0 -39 -2 -39 -30z"/>
 <path d="M1269 974 c-88 -56 -74 -171 25 -209 35 -14 62 -16 111 -12 59 6 65 5 65 -13 0 -32 -21 -67 -47 -79 -36 -17 -72 -13 -121 11 -44 21 -45 21 -58 3 -20 -27 -19 -29 37 -55 67 -32 141 -33 191 -2 52 32 68 80 68 202 0 55 4 102 10 105 6 3 10 19 10 36 0 23 -4 29 -21 29 -29 0 -59 -18 -59 -36 0 -11 -7 -10 -30 8 -41 30 -143 36 -181 12z m120 -40 c47 -10 81 -46 81 -87 0 -31 -4 -35 -31 -41 -79 -16 -139 -1 -157 39 -13 28 4 65 38 82 29 15 28 15 69 7z"/>
 <path d="M1642 964 c-57 -28 -58 -30 -37 -58 13 -18 16 -17 66 8 58 29 81 31 128 15 20 -7 33 -20 38 -37 9 -35 -20 -56 -109 -77 -88 -22 -118 -48 -118 -102 0 -73 56 -116 150 -116 54 0 88 11 122 40 16 14 16 17 0 37 l-16 23 -34 -24 c-54 -36 -131 -29 -150 12 -16 35 10 59 88 80 88 23 115 39 130 74 22 53 -4 107 -67 140 -40 21 -134 13 -191 -15z"/>
 </g>

</svg>