<!DOCTYPE svg PUBLIC "-//W3C//DTD SVG 20010904//EN" "http://www.w3.org/TR/2001/REC-SVG-20010904/DTD/svg10.dtd">
<svg version="1.0" xmlns="http://www.w3.org/2000/svg" width="309px" height="400px" viewBox="0 0 3090 4000" preserveAspectRatio="xMidYMid meet">
<g id="layer101" fill="#ffffff" stroke="none">
 <path d="M1758 3500 c-315 -57 -563 -298 -633 -616 -26 -114 -17 -291 19 -399 82 -243 270 -432 511 -512 74 -25 93 -27 240 -27 148 0 166 2 240 28 279 96 474 315 531 599 22 107 15 273 -16 372 -82 261 -279 457 -540 535 -83 25 -268 36 -352 20z m322 -190 c101 -34 168 -77 250 -159 240 -242 239 -618 -2 -860 -239 -240 -628 -240 -868 -1 -153 154 -214 375 -160 584 29 115 73 189 165 282 89 90 182 143 297 169 86 20 234 13 318 -15z"/>
 <path d="M1610 2695 l0 -435 198 0 c147 0 211 4 249 15 70 21 133 79 168 156 24 55 27 71 23 139 -5 89 -31 143 -97 203 -57 51 -120 67 -268 67 l-123 0 0 145 0 145 -75 0 -75 0 0 -435z m436 -23 c50 -40 70 -133 40 -190 -8 -15 -26 -38 -41 -52 -25 -24 -34 -25 -156 -29 l-129 -3 0 146 0 146 133 0 c110 0 136 -3 153 -18z"/>
 <path d="M1075 2053 c-188 -26 -399 -148 -509 -294 -69 -92 -96 -141 -129 -238 -25 -73 -30 -106 -35 -216 -6 -161 14 -253 85 -395 40 -80 62 -110 143 -190 73 -74 113 -105 175 -137 153 -79 299 -108 458 -92 524 53 848 598 646 1086 -78 186 -250 354 -441 429 -113 44 -274 63 -393 47z m277 -189 c273 -81 464 -352 444 -629 -16 -226 -144 -418 -342 -514 -235 -114 -515 -69 -700 114 -84 83 -136 172 -164 280 -37 146 -23 288 41 422 85 178 257 308 453 343 66 11 201 3 268 -16z"/>
 <path d="M910 1260 l0 -440 300 0 300 0 0 75 0 75 -225 0 -225 0 0 105 0 105 195 0 195 0 0 70 0 70 -195 0 -195 0 0 115 0 115 230 0 230 0 0 75 0 75 -305 0 -305 0 0 -440z"/>
 </g>

</svg>